<?xml version="1.0" encoding="UTF-8" standalone="no"?>
<!DOCTYPE svg PUBLIC "-//W3C//DTD SVG 20010904//EN"
              "http://www.w3.org/TR/2001/REC-SVG-20010904/DTD/svg10.dtd">

<svg id="design-svg" xmlns="http://www.w3.org/2000/svg"
     width="0.523333in" height="0.21in"
     viewBox="0 0 157 63">
  <path id="design"
        fill="none" stroke="black" stroke-width="1"
        d="M 5.33,42.00
           C 5.33,42.00 13.20,42.00 13.20,42.00
             23.36,42.00 25.91,41.83 29.19,40.64
             34.16,38.97 39.23,35.75 41.66,32.77
             44.81,28.86 47.05,22.36 47.05,17.08
             47.05,12.81 44.81,9.58 40.59,7.72
             37.94,6.55 34.77,6.05 28.77,5.67
             28.77,5.67 29.19,3.94 29.19,3.94
             29.19,3.94 24.73,5.80 24.73,5.80
             19.64,6.67 16.42,7.78 13.14,9.89
             7.86,13.30 5.33,17.45 5.33,22.78
             5.33,23.97 5.39,24.70 5.77,26.27
             5.77,26.27 10.84,23.97 10.84,23.97
             10.47,22.36 10.41,21.67 10.41,20.50
             10.41,13.12 15.00,8.78 23.67,7.91
             23.67,7.91 19.03,26.39 19.03,26.39
             16.61,36.73 15.00,38.66 8.30,39.16
             8.30,39.16 5.33,42.00 5.33,42.00 Z
           M 28.27,7.59
           C 32.84,7.78 34.89,8.16 36.81,9.16
             39.86,10.77 41.66,14.17 41.66,18.33
             41.66,23.72 39.61,30.30 36.81,33.83
             33.78,37.73 30.12,39.22 23.73,39.22
             23.73,39.22 22.81,39.22 22.81,39.22
             22.81,39.22 14.88,38.97 14.88,38.97
             22.06,32.28 22.06,32.28 24.86,21.05
             24.86,21.05 28.27,7.59 28.27,7.59 Z
           M 66.55,33.80
           C 61.59,37.95 58.92,39.47 56.56,39.47
             54.95,39.47 53.72,38.44 53.28,36.84
             53.03,35.88 52.97,35.20 52.97,33.42
             55.83,31.66 57.56,30.42 61.22,27.73
             64.62,25.23 65.88,23.22 65.88,20.47
             65.88,18.31 64.56,17.00 62.33,17.00
             60.97,17.00 60.05,17.31 58.55,18.12
             56.20,19.48 54.09,21.14 52.84,22.61
             50.50,25.42 48.39,32.14 48.39,37.09
             48.39,40.72 50.31,43.00 53.47,43.00
             57.12,43.00 61.84,40.28 66.48,35.56
             66.48,35.56 66.55,33.80 66.55,33.80 Z
           M 53.16,31.22
           C 54.22,24.62 57.00,19.61 59.73,19.61
             60.72,19.61 61.41,20.59 61.41,22.12
             61.41,25.17 59.61,27.12 53.16,31.22 Z
           M 66.66,37.11
           C 66.59,37.66 66.53,38.14 66.53,38.52
             66.53,41.20 68.39,43.00 71.12,43.00
             73.11,43.00 75.70,42.27 77.69,41.08
             81.41,39.00 83.58,35.88 83.58,32.83
             83.58,30.56 83.22,30.08 79.67,27.94
             77.56,26.58 76.70,25.42 76.70,23.83
             76.70,21.75 78.50,19.92 80.61,19.92
             82.03,19.92 83.16,20.59 84.45,22.31
             86.56,20.28 86.56,20.28 87.36,19.11
             86.12,17.62 84.95,17.00 83.22,17.00
             78.69,17.00 72.86,22.31 72.86,26.41
             72.86,28.30 73.84,29.77 76.20,31.42
             79.31,33.56 79.73,34.11 79.73,35.64
             79.73,37.84 76.89,40.41 74.47,40.41
             73.11,40.41 72.05,39.67 71.44,38.33
             71.00,37.41 70.88,36.48 70.81,34.34
             70.12,34.91 69.64,35.20 69.39,35.39
             68.89,35.70 68.33,36.00 67.78,36.38
             67.72,36.38 67.16,36.80 66.66,37.11 Z
           M 100.92,4.30
           C 99.19,5.66 97.75,6.78 96.64,7.52
             97.08,8.83 97.62,9.88 99.00,11.86
             100.73,10.31 100.92,10.12 103.03,8.52
             102.84,8.14 102.72,7.89 102.22,7.09
             101.84,6.34 101.78,6.34 101.30,5.11
             101.30,5.11 100.92,4.30 100.92,4.30 Z
           M 103.27,35.09
           C 103.27,35.09 102.22,35.64 102.22,35.64
             97.94,37.97 97.20,38.28 96.45,38.28
             95.77,38.28 95.34,37.61 95.34,36.56
             95.34,35.52 95.34,35.52 97.39,27.44
             99.67,18.12 99.67,18.12 99.67,17.62
             99.67,17.25 99.38,17.00 98.94,17.00
             97.88,17.00 94.22,19.05 89.14,22.41
             89.14,22.41 89.02,24.12 89.02,24.12
             92.80,22.11 92.98,22.05 93.55,22.05
             94.03,22.05 94.28,22.41 94.28,23.09
             94.28,23.94 94.09,24.80 93.17,28.30
             90.25,38.95 90.25,38.95 90.25,40.55
             90.25,42.02 90.81,43.00 91.73,43.00
             92.80,43.00 94.47,42.20 97.75,40.11
             98.94,39.38 100.11,38.64 101.30,37.84
             101.84,37.55 102.28,37.23 103.03,36.81
             103.03,36.81 103.27,35.09 103.27,35.09 Z
           M 123.61,28.70
           C 123.86,27.36 124.16,26.19 124.41,25.22
             124.72,24.06 125.03,22.89 125.34,21.80
             125.34,21.80 125.66,20.45 125.66,20.45
             126.77,20.14 126.83,20.14 128.81,17.00
             128.50,17.00 127.70,17.00 121.62,17.12
             117.84,17.19 116.72,17.38 114.92,18.50
             111.95,20.27 109.84,22.03 108.55,23.69
             106.69,26.14 104.45,33.41 104.45,37.20
             104.45,38.72 104.81,39.83 105.81,41.17
             102.03,44.41 100.92,45.33 98.69,47.22
             95.58,49.91 94.16,51.92 94.16,53.64
             94.16,55.94 96.83,57.23 101.59,57.23
             107.30,57.23 111.77,55.62 115.92,52.05
             118.58,49.80 119.20,48.50 120.50,42.45
             120.50,42.45 123.61,28.70 123.61,28.70 Z
           M 115.48,45.45
           C 114.67,49.17 114.12,50.53 113.00,51.69
             111.64,53.28 109.09,54.00 105.44,54.00
             101.41,54.00 99.23,52.97 99.23,50.95
             99.23,48.44 100.97,46.92 118.16,33.89
             118.16,33.89 115.48,45.45 115.48,45.45 Z
           M 110.77,37.44
           C 109.66,36.34 109.22,35.36 109.22,33.89
             109.22,32.48 109.53,30.97 110.64,27.36
             111.77,23.69 112.62,22.09 114.06,21.25
             115.17,20.52 116.53,20.39 122.73,20.39
             122.73,20.39 124.72,20.39 124.72,20.39
             122.11,22.28 121.81,22.53 121.25,23.44
             120.75,24.23 120.08,26.56 118.70,31.70
             117.66,32.38 117.47,32.55 116.66,33.11
             115.17,34.14 113.75,35.23 112.39,36.28
             112.39,36.28 110.77,37.44 110.77,37.44 Z
           M 134.16,40.86
           C 134.16,40.86 137.81,26.58 137.81,26.58
             137.81,26.58 139.38,25.59 139.38,25.59
             145.14,22.08 145.81,21.72 146.69,21.72
             147.06,21.72 147.30,22.02 147.30,22.50
             147.30,23.47 146.88,25.23 145.02,32.66
             143.64,38.00 143.39,39.09 143.39,40.25
             143.39,41.09 143.64,41.83 144.33,43.00
             147.11,41.77 151.45,39.09 155.80,35.94
             155.80,35.94 156.23,34.23 156.23,34.23
             150.22,37.64 149.78,37.81 149.16,37.81
             148.55,37.81 148.17,37.20 148.17,36.17
             148.17,34.53 148.42,33.50 151.14,23.84
             152.70,18.44 152.70,18.44 152.70,18.06
             152.70,17.38 152.27,17.00 151.52,17.00
             150.16,17.00 149.97,17.12 143.27,21.17
             140.80,22.69 139.19,23.66 138.44,24.14
             139.06,22.02 139.92,18.31 139.92,17.81
             139.92,17.31 139.61,17.00 139.12,17.00
             138.44,17.00 134.22,19.16 129.39,21.95
             129.39,21.95 129.02,23.53 129.02,23.53
             132.98,21.77 133.23,21.72 133.78,21.72
             134.22,21.72 134.53,22.08 134.53,22.56
             134.53,23.91 133.42,28.77 131.80,34.41
             131.80,34.41 130.38,39.34 130.38,39.34
             130.25,39.77 129.94,40.92 129.52,42.64
             129.52,42.64 134.16,40.86 134.16,40.86 Z" />
</svg>
