<?xml version="1.0" encoding="UTF-8" standalone="no"?>
<!DOCTYPE svg PUBLIC "-//W3C//DTD SVG 20010904//EN"
              "http://www.w3.org/TR/2001/REC-SVG-20010904/DTD/svg10.dtd">

<svg xmlns="http://www.w3.org/2000/svg"
     width="0.493333in" height="0.376667in"
     viewBox="0 0 148 113">
  <path id="Selection"
        fill="none" stroke="black" stroke-width="1"
        d="M 51.60,30.02
           C 59.10,26.87 62.82,33.17 58.68,35.98
             55.00,38.47 47.25,36.23 51.60,30.02 Z
           M 84.00,65.00
           C 81.38,63.49 77.82,61.62 76.57,58.70
             73.54,51.59 78.67,43.27 86.00,42.21
             90.99,41.50 93.27,43.07 97.00,46.00
             98.61,42.12 101.15,43.01 105.00,43.00
             105.00,43.00 104.00,80.00 104.00,80.00
             99.79,77.51 98.44,76.80 97.00,72.00
             92.35,72.35 91.24,71.15 88.00,68.00
             89.77,67.86 91.26,67.90 92.89,66.98
             103.70,60.90 91.21,40.71 84.31,54.04
             83.69,55.24 83.35,56.66 83.23,58.00
             83.01,60.31 83.60,62.73 84.00,65.00 Z
           M 121.00,46.00
           C 123.07,44.37 124.35,43.14 127.00,42.43
             146.04,37.35 142.00,66.47 142.00,77.00
             142.00,77.00 133.89,77.00 133.89,77.00
             133.89,77.00 133.89,56.00 133.89,56.00
             133.29,53.36 131.79,50.57 128.96,49.88
             125.61,49.07 122.83,52.18 121.74,55.00
             120.52,58.14 121.00,72.70 121.00,77.00
             121.00,77.00 113.00,77.00 113.00,77.00
             113.00,77.00 113.00,43.00 113.00,43.00
             116.85,43.01 119.39,42.12 121.00,46.00 Z
           M 55.00,43.00
           C 55.00,43.00 60.00,43.00 60.00,43.00
             60.00,43.00 60.00,47.00 60.00,47.00
             60.00,47.00 55.00,43.00 55.00,43.00 Z" />
</svg>
