<?xml version="1.0" encoding="UTF-8" standalone="no"?>
<!DOCTYPE svg PUBLIC "-//W3C//DTD SVG 20010904//EN"
              "http://www.w3.org/TR/2001/REC-SVG-20010904/DTD/svg10.dtd">

<svg xmlns="http://www.w3.org/2000/svg"
     width="0.393333in" height="0.38in"
     viewBox="0 0 118 114">
  <path id="Selection"
        fill="black" stroke="black" stroke-width="1"
        d="M 8.00,32.00
           C 13.55,32.00 27.75,30.98 31.96,33.74
             40.26,39.19 39.99,53.19 30.98,57.83
             27.60,59.57 19.07,59.00 15.00,59.00
             15.00,59.00 15.00,77.00 15.00,77.00
             15.00,77.00 8.00,77.00 8.00,77.00
             8.00,77.00 8.00,32.00 8.00,32.00 Z
           M 15.00,52.00
           C 17.93,52.00 24.42,52.42 26.77,50.98
             30.92,48.44 30.67,41.58 25.89,39.60
             23.84,38.75 17.51,39.00 15.00,39.00
             15.00,39.00 15.00,52.00 15.00,52.00 Z
           M 54.00,47.00
           C 57.79,40.51 67.75,40.42 72.30,46.21
             74.96,49.60 74.96,53.92 75.00,58.00
             75.00,58.00 67.00,58.00 67.00,58.00
             65.74,47.11 57.22,47.94 54.74,54.04
             53.50,57.08 54.00,72.68 54.00,77.00
             54.00,77.00 46.00,77.00 46.00,77.00
             46.00,77.00 46.00,43.00 46.00,43.00
             46.00,43.00 53.00,43.00 53.00,43.00
             53.00,43.00 54.00,47.00 54.00,47.00 Z
           M 91.00,42.53
           C 97.03,41.54 103.40,41.98 107.57,47.11
             110.80,51.08 110.01,57.12 110.00,62.00
             109.98,72.77 105.63,78.72 94.00,77.90
             80.74,76.98 80.87,67.20 81.00,57.00
             81.11,49.10 83.20,45.04 91.00,42.53 Z
           M 94.02,49.47
           C 92.15,50.23 91.20,50.29 90.02,52.23
             88.97,53.95 85.80,72.98 96.98,70.53
             104.94,68.78 106.62,48.88 94.02,49.47 Z" />
</svg>
