<?xml version="1.0" encoding="UTF-8" standalone="no"?>
<!DOCTYPE svg PUBLIC "-//W3C//DTD SVG 20010904//EN"
              "http://www.w3.org/TR/2001/REC-SVG-20010904/DTD/svg10.dtd">

<svg xmlns="http://www.w3.org/2000/svg"
     width="0.493333in" height="0.38in"
     viewBox="0 0 148 113">
  <path id="Selection"
        fill="none" stroke="black" stroke-width="1"
        d="M 6.00,67.00
           C 17.09,67.04 13.39,69.40 19.01,70.53
             21.43,71.02 27.03,69.71 25.80,66.18
             24.87,63.51 20.35,63.03 18.00,62.58
             11.92,61.41 6.23,59.45 6.49,51.79
             6.93,39.43 31.85,37.21 35.00,51.79
             35.00,51.79 29.00,51.79 29.00,51.79
             25.62,51.09 18.49,46.81 15.91,51.79
             14.18,54.50 18.95,55.90 21.00,56.37
             28.74,58.17 35.94,58.23 34.89,69.00
             33.69,81.22 12.61,79.93 7.74,72.89
             6.33,70.87 6.27,69.32 6.00,67.00 Z
           M 46.00,43.00
           C 49.27,43.00 59.33,42.45 61.69,44.02
             64.27,45.75 63.98,49.27 64.00,52.00
             64.00,52.00 64.00,70.00 64.00,70.00
             64.00,70.00 74.00,70.00 74.00,70.00
             74.00,70.00 74.00,77.00 74.00,77.00
             74.00,77.00 44.00,77.00 44.00,77.00
             44.00,77.00 44.00,70.00 44.00,70.00
             44.00,70.00 56.00,70.00 56.00,70.00
             56.00,70.00 56.00,50.00 56.00,50.00
             56.00,50.00 46.00,50.00 46.00,50.00
             46.00,50.00 46.00,43.00 46.00,43.00 Z
           M 80.00,58.00
           C 80.00,58.00 90.26,66.30 90.26,66.30
             90.26,66.30 100.00,73.00 100.00,73.00
             93.53,76.00 84.57,76.62 81.09,68.96
             79.68,65.87 80.00,61.40 80.00,58.00 Z
           M 101.00,74.00
           C 105.27,76.22 109.99,78.74 105.68,83.90
             104.46,85.36 102.78,86.58 101.00,87.26
             98.07,88.39 88.63,88.00 85.00,88.00
             85.00,88.00 85.00,81.00 85.00,81.00
             92.41,81.00 98.43,82.65 101.00,74.00 Z" />
</svg>
